{"title":"Water.For.Elephants.[2011].DvdRip.XviD-KnÃƒÂ£","uid":6656624,"size":1691424768,"categoryP":"video","categoryS":"movies","magnet":"?xt=urn:btih:16940f4f8e716719346aa7e7510fc35be27236fe&amp;dn=Water.For.Elephants.%5B2011%5D.DvdRip.XviD-Kn%C3%83%C2%A3&amp;tr=udp%3A%2F%2Ftracker.openbittorrent.com%3A80&amp;tr=udp%3A%2F%2Fopen.demonii.com%3A1337&amp;tr=udp%3A%2F%2Ftracker.coppersurfer.tk%3A6969&amp;tr=udp%3A%2F%2Fexodus.desync.com%3A6969","seeders":0,"leechers":1,"uploader":"Jon.Pson","files":-1,"time":1315343532,"description":"A veterinary student abandons his studies after his parents are killed and joins a traveling circus as their vet. \n\n\n\nGeneral\nComplete name                    : Z:\\Upload\\Water.For.Elephants.[2011].DvdRip.XviD-KnÃƒÂ£\\Water.For.Elephants.[2011].DvdRip.XviD-KnÃƒÂ£.avi\nFormat                           : AVI\nFormat/Info                      : Audio Video Interleave\nFile size                        : 1.58 GiB\nDuration                         : 1h 55mn\nOverall bit rate                 : 1 952 Kbps\nWriting application              : VirtualDubMod 1.5.4.1 (build 2178/release)\nWriting library                  : VirtualDubMod build 2178/release\n\nVideo\nID                               : 0\nFormat                           : MPEG-4 Visual\nFormat profile                   : Advanced Simple@L5\nFormat settings, BVOP            : No\nFormat settings, QPel            : No\nFormat settings, GMC             : No warppoints\nFormat settings, Matrix          : Custom\nCodec ID                         : XVID\nCodec ID/Hint                    : XviD\nDuration                         : 1h 55mn\nBit rate                         : 1 497 Kbps\nWidth                            : 720 pixels\nHeight                           : 304 pixels\nDisplay aspect ratio             : 2.35:1\nFrame rate                       : 25.000 fps\nColor space                      : YUV\nChroma subsampling               : 4:2:0\nBit depth                        : 8 bits\nScan type                        : Progressive\nCompression mode                 : Lossy\nBits/(Pixel*Frame)               : 0.274\nStream size                      : 1.21 GiB (77%)\nWriting library                  : XviD 1.2.1 (UTC 2008-12-04)\n\nAudio\nID                               : 1\nFormat                           : AC-3\nFormat/Info                      : Audio Coding 3\nMode extension                   : CM (complete main)\nCodec ID                         : 2000\nDuration                         : 1h 55mn\nBit rate mode                    : Constant\nBit rate                         : 448 Kbps\nChannel(s)                       : 6 channels\nChannel positions                : Front: L C R, Side: L R, LFE\nSampling rate                    : 48.0 KHz\nBit depth                        : 16 bits\nCompression mode                 : Lossy\nStream size                      : 370 MiB (23%)\nAlignment                        : Split accross interleaves\nInterleave, duration             : 96 ms (2.40 video frames)\nInterleave, preload duration     : 96 ms\nLanguage                         : English\n\n","torrent":{"xt":"urn:btih:16940f4f8e716719346aa7e7510fc35be27236fe","amp;dn":"Water.For.Elephants.%5B2011%5D.DvdRip.XviD-Kn%C3%83%C2%A3","amp;tr":["udp%3A%2F%2Ftracker.openbittorrent.com%3A80","udp%3A%2F%2Fopen.demonii.com%3A1337","udp%3A%2F%2Ftracker.coppersurfer.tk%3A6969","udp%3A%2F%2Fexodus.desync.com%3A6969"],"infoHash":"16940f4f8e716719346aa7e7510fc35be27236fe","infoHashBuffer":{"type":"Buffer","data":[22,148,15,79,142,113,103,25,52,106,167,231,81,15,195,91,226,114,54,254]},"announce":[],"urlList":[]}}